<?xml version="1.0" encoding="UTF-8"?>
<svg version="1.1" xmlns="http://www.w3.org/2000/svg" width="512" height="512">
  <path d="M0 0 C3.35274644 2.65860064 6.30461106 5.59598623 9.265625 8.6796875 C10.47203644 9.89883347 10.47203644 9.89883347 11.70281982 11.14260864 C14.23316907 13.70616838 16.74167572 16.28990507 19.25 18.875 C20.9764545 20.63159534 22.70430775 22.38681708 24.43359375 24.140625 C28.63867414 28.41135988 32.82609379 32.69880418 37 37 C41.97380443 32.85046684 46.55531017 28.50951193 51.04296875 23.84375 C52.37747837 22.47710558 53.71279039 21.11124432 55.04882812 19.74609375 C57.1185374 17.62719309 59.18328983 15.5043854 61.23461914 13.36767578 C79.51529209 -5.63965776 79.51529209 -5.63965776 93 -6.75 C101.20891342 -6.28676735 108.94359178 -2.66012365 114.5625 3.375 C120.15475104 10.96330525 121.00523115 18.70161191 120 28 C117.33986628 38.35552055 108.42721235 45.72561324 101.09765625 53 C100.01380898 54.08172485 100.01380898 54.08172485 98.9080658 55.18530273 C96.62857396 57.45925415 94.3456076 59.72967954 92.0625 62 C90.50432494 63.55315235 88.94638007 65.10653567 87.38867188 66.66015625 C83.59510241 70.44277586 79.79868385 74.2225169 76 78 C76.59975647 77.99920441 77.19951294 77.99840881 77.81744385 77.99758911 C84.1131841 77.9951335 90.40770658 78.03470207 96.703125 78.09765625 C99.04616629 78.11571934 101.38931326 78.12340253 103.73242188 78.12011719 C129.43572952 78.0982234 129.43572952 78.0982234 138 85 C140.44381684 87.5077801 142.29329525 89.94589677 144 93 C144.61875 94.093125 145.2375 95.18625 145.875 96.3125 C148.27321606 104.17331931 147.89140181 112.67271165 144 120 C139.24965794 126.75968215 133.8856618 131.60586915 125.7459259 133.53392029 C122.81131138 134.03202706 120.08427151 134.12000931 117.1081543 134.11352539 C115.94732834 134.11344986 114.78650238 134.11337433 113.59049988 134.11329651 C112.34762711 134.10813522 111.10475433 134.10297394 109.82421875 134.09765625 C108.54392288 134.0962413 107.26362701 134.09482635 105.9445343 134.09336853 C102.5530296 134.08956397 99.16156823 134.07975143 95.77008057 134.06866455 C92.30440874 134.05840598 88.83872965 134.05380649 85.37304688 134.04882812 C78.58199308 134.03865883 71.79105801 134.01908196 65 134 C65 142.91 65 151.82 65 161 C71.10628906 160.94779297 71.10628906 160.94779297 77.3359375 160.89453125 C80.60678331 160.87520274 83.87761271 160.85894699 87.14848328 160.84474945 C90.5875518 160.82898755 94.02639407 160.80796806 97.46533203 160.77368164 C101.42217158 160.73448405 105.37892268 160.7202237 109.3359375 160.70703125 C110.55300385 160.69154739 111.77007019 160.67606354 113.02401733 160.66011047 C123.22546292 160.65811851 131.68388927 161.82095009 139.2421875 169.02734375 C145.27181608 175.79392694 147.3892124 181.78117425 147.26953125 190.80078125 C146.57476862 199.04731157 143.10681495 204.82415387 137.0859375 210.375 C131.1431984 215.00454956 124.49857579 216.12962653 117.1081543 216.11352539 C115.94732834 216.11344986 114.78650238 216.11337433 113.59049988 216.11329651 C112.34762711 216.10813522 111.10475433 216.10297394 109.82421875 216.09765625 C108.54392288 216.0962413 107.26362701 216.09482635 105.9445343 216.09336853 C102.5530296 216.08956397 99.16156823 216.07975143 95.77008057 216.06866455 C92.30440863 216.05840597 88.83872964 216.05386141 85.37304688 216.04882812 C78.58201252 216.03780755 71.79101019 216.0210757 65 216 C65.00666183 216.70664291 65.01332367 217.41328583 65.02018738 218.14134216 C65.08055548 224.83434097 65.12610405 231.52726265 65.15543652 238.22047329 C65.17102416 241.66069184 65.19213408 245.10068348 65.22631836 248.54077148 C65.26546007 252.50501697 65.27976629 256.46917387 65.29296875 260.43359375 C65.30845261 261.65582138 65.32393646 262.87804901 65.33988953 264.13731384 C65.34189696 274.41864717 63.75670308 282.86753302 56.50390625 290.59375 C49.99895271 296.72312886 42.62043032 298.67842432 33.77734375 298.41796875 C26.66689102 297.34790062 20.50987157 293.54069936 16 288 C12.05576773 282.28030136 9.87187146 278.14234039 9.88647461 271.05981445 C9.88658791 269.22825554 9.88658791 269.22825554 9.88670349 267.35969543 C9.89186478 266.04087875 9.89702606 264.72206207 9.90234375 263.36328125 C9.9042092 261.99993441 9.9056325 260.63658689 9.90663147 259.27323914 C9.91044668 255.68771509 9.92026845 252.10223165 9.93133545 248.51672363 C9.94157099 244.8568578 9.94613368 241.1969854 9.95117188 237.53710938 C9.96189162 230.35805442 9.97895607 223.1790329 10 216 C8.8869902 216.01665459 8.8869902 216.01665459 7.75149536 216.03364563 C0.72038049 216.13429753 -6.31048016 216.21019114 -13.3421154 216.25906086 C-16.95625701 216.28503134 -20.56979782 216.32019409 -24.18359375 216.37719727 C-27.67849662 216.431973 -31.17282578 216.46151462 -34.66812515 216.47438622 C-36.63448279 216.48796899 -38.60061318 216.5269284 -40.56661987 216.56648254 C-50.47402425 216.56954813 -57.37902792 214.33884096 -64.875 207.8125 C-70.82907742 201.28131342 -72.7809237 193.67173545 -72.4453125 184.95703125 C-71.19751518 176.67121925 -66.48370791 170.10540271 -60 165 C-52.63179148 160.31615873 -45.27560644 160.47314176 -36.77734375 160.609375 C-35.42258038 160.61685118 -34.06780608 160.62253759 -32.71302795 160.62652588 C-29.17661788 160.64167437 -25.64088282 160.68085945 -22.10473633 160.7253418 C-18.48463227 160.76653032 -14.86441407 160.78480722 -11.24414062 160.8046875 C-4.1621676 160.84523702 2.91796077 160.9235522 10 161 C10 152.09 10 143.18 10 134 C5.91753906 134.03480469 1.83507812 134.06960937 -2.37109375 134.10546875 C-5.64747087 134.12479189 -8.92383167 134.14104955 -12.20023346 134.15525055 C-15.64719778 134.17102454 -19.09393704 134.19206704 -22.54077148 134.22631836 C-26.50501697 134.26546007 -30.46917387 134.27976629 -34.43359375 134.29296875 C-35.65582138 134.30845261 -36.87804901 134.32393646 -38.13731384 134.33988953 C-48.41864717 134.34189696 -56.86753302 132.75670308 -64.59375 125.50390625 C-70.02518658 119.73966106 -72.05515687 113.52313279 -72.5625 105.6875 C-72.30445059 98.02128206 -69.17136512 91.19362032 -63.7734375 85.7578125 C-58.46591856 81.47984573 -53.68113042 78.78433445 -46.75073242 78.68115234 C-45.73005173 78.66128265 -44.70937103 78.64141296 -43.65776062 78.62094116 C-42.5680043 78.60938995 -41.47824799 78.59783875 -40.35546875 78.5859375 C-39.2305452 78.56657135 -38.10562164 78.5472052 -36.9466095 78.5272522 C-33.36031634 78.4675629 -29.77399091 78.42111306 -26.1875 78.375 C-23.75324136 78.33681047 -21.31899608 78.29775817 -18.88476562 78.2578125 C-12.92329595 78.16187002 -6.96174547 78.07679125 -1 78 C-1.47971252 77.52694931 -1.95942505 77.05389862 -2.45367432 76.56651306 C-7.45922117 71.62749901 -12.45404751 66.67782802 -17.44287109 61.72192383 C-19.3044165 59.87543528 -21.16864948 58.03165203 -23.03564453 56.19067383 C-25.72364417 53.53919203 -28.40172781 50.87803039 -31.078125 48.21484375 C-31.91055725 47.39789536 -32.7429895 46.58094696 -33.60064697 45.73924255 C-40.97827479 38.36375658 -45.09901427 32.36932988 -45.25 21.75 C-45.13974839 12.7795284 -43.08448981 7.35687036 -36.96875 0.76171875 C-25.73259104 -9.29286 -12.02599881 -7.35330304 0 0 Z " fill="#FFFFFF" transform="translate(219,110)"/>
</svg>